<mxfile host="app.diagrams.net" modified="2023-08-05T15:47:53.009Z" agent="Mozilla/5.0 (Windows NT 10.0; Win64; x64; rv:109.0) Gecko/20100101 Firefox/115.0" etag="CNtABnIlvqOFRe4pK8Gl" version="21.6.6" type="github">
  <diagram name="Page-1" id="fzNRnP826HokWF9cmXyg">
    <mxGraphModel dx="1434" dy="774" grid="1" gridSize="10" guides="1" tooltips="1" connect="1" arrows="1" fold="1" page="1" pageScale="1" pageWidth="850" pageHeight="1100" math="0" shadow="0">
      <root>
        <mxCell id="0" />
        <mxCell id="1" parent="0" />
        <mxCell id="4j98KLdYWCdhN-2w7q4d-6" value="" style="group" parent="1" vertex="1" connectable="0">
          <mxGeometry x="150" y="470" width="450" height="330" as="geometry" />
        </mxCell>
        <mxCell id="4j98KLdYWCdhN-2w7q4d-1" value="" style="rounded=0;whiteSpace=wrap;html=1;" parent="4j98KLdYWCdhN-2w7q4d-6" vertex="1">
          <mxGeometry width="450" height="290.00000000000006" as="geometry" />
        </mxCell>
        <mxCell id="4j98KLdYWCdhN-2w7q4d-2" value="&lt;h4&gt;ServiceStatusGUI&lt;/h4&gt;" style="text;html=1;strokeColor=none;fillColor=none;align=center;verticalAlign=middle;whiteSpace=wrap;rounded=0;" parent="4j98KLdYWCdhN-2w7q4d-6" vertex="1">
          <mxGeometry x="182.8125" width="84.375" height="43.50000000000001" as="geometry" />
        </mxCell>
        <mxCell id="4j98KLdYWCdhN-2w7q4d-3" value="" style="ellipse;whiteSpace=wrap;html=1;aspect=fixed;fillColor=#f8cecc;strokeColor=#b85450;" parent="4j98KLdYWCdhN-2w7q4d-6" vertex="1">
          <mxGeometry x="421.875" y="14.500000000000002" width="14.0625" height="14.0625" as="geometry" />
        </mxCell>
        <mxCell id="4j98KLdYWCdhN-2w7q4d-4" value="" style="ellipse;whiteSpace=wrap;html=1;aspect=fixed;fillColor=#fff2cc;strokeColor=#d6b656;" parent="4j98KLdYWCdhN-2w7q4d-6" vertex="1">
          <mxGeometry x="393.75" y="14.500000000000002" width="14.0625" height="14.0625" as="geometry" />
        </mxCell>
        <mxCell id="4j98KLdYWCdhN-2w7q4d-5" value="" style="ellipse;whiteSpace=wrap;html=1;aspect=fixed;fillColor=#d5e8d4;strokeColor=#82b366;" parent="4j98KLdYWCdhN-2w7q4d-6" vertex="1">
          <mxGeometry x="365.625" y="14.500000000000002" width="14.0625" height="14.0625" as="geometry" />
        </mxCell>
        <mxCell id="D249ZISTXlAxNiE2_2An-1" value="" style="group" parent="4j98KLdYWCdhN-2w7q4d-6" vertex="1" connectable="0">
          <mxGeometry x="30" y="20" width="330" height="238.67999999999995" as="geometry" />
        </mxCell>
        <mxCell id="D249ZISTXlAxNiE2_2An-2" value="" style="rounded=0;whiteSpace=wrap;html=1;container=0;" parent="D249ZISTXlAxNiE2_2An-1" vertex="1">
          <mxGeometry x="220" y="33.642857142857146" width="36.666666666666664" height="33.642857142857146" as="geometry" />
        </mxCell>
        <mxCell id="D249ZISTXlAxNiE2_2An-3" value="" style="rounded=0;whiteSpace=wrap;html=1;container=0;fillColor=#d5e8d4;strokeColor=#82b366;" parent="D249ZISTXlAxNiE2_2An-1" vertex="1">
          <mxGeometry x="220" y="67.28571428571429" width="36.666666666666664" height="33.642857142857146" as="geometry" />
        </mxCell>
        <mxCell id="D249ZISTXlAxNiE2_2An-4" value="" style="rounded=0;whiteSpace=wrap;html=1;container=0;fillColor=#d5e8d4;strokeColor=#82b366;" parent="D249ZISTXlAxNiE2_2An-1" vertex="1">
          <mxGeometry x="220" y="100.92857142857143" width="36.666666666666664" height="33.642857142857146" as="geometry" />
        </mxCell>
        <mxCell id="D249ZISTXlAxNiE2_2An-5" value="" style="rounded=0;whiteSpace=wrap;html=1;container=0;" parent="D249ZISTXlAxNiE2_2An-1" vertex="1">
          <mxGeometry x="220" y="134.57142857142858" width="36.666666666666664" height="33.642857142857146" as="geometry" />
        </mxCell>
        <mxCell id="D249ZISTXlAxNiE2_2An-6" value="" style="rounded=0;whiteSpace=wrap;html=1;container=0;" parent="D249ZISTXlAxNiE2_2An-1" vertex="1">
          <mxGeometry x="220" y="168.21428571428572" width="36.666666666666664" height="33.642857142857146" as="geometry" />
        </mxCell>
        <mxCell id="D249ZISTXlAxNiE2_2An-7" value="" style="rounded=0;whiteSpace=wrap;html=1;container=0;" parent="D249ZISTXlAxNiE2_2An-1" vertex="1">
          <mxGeometry x="256.66666666666663" y="33.642857142857146" width="36.666666666666664" height="33.642857142857146" as="geometry" />
        </mxCell>
        <mxCell id="D249ZISTXlAxNiE2_2An-8" value="" style="rounded=0;whiteSpace=wrap;html=1;container=0;" parent="D249ZISTXlAxNiE2_2An-1" vertex="1">
          <mxGeometry x="256.66666666666663" y="67.28571428571429" width="36.666666666666664" height="33.642857142857146" as="geometry" />
        </mxCell>
        <mxCell id="D249ZISTXlAxNiE2_2An-9" value="" style="rounded=0;whiteSpace=wrap;html=1;container=0;" parent="D249ZISTXlAxNiE2_2An-1" vertex="1">
          <mxGeometry x="256.66666666666663" y="100.92857142857143" width="36.666666666666664" height="33.642857142857146" as="geometry" />
        </mxCell>
        <mxCell id="D249ZISTXlAxNiE2_2An-10" value="" style="rounded=0;whiteSpace=wrap;html=1;container=0;" parent="D249ZISTXlAxNiE2_2An-1" vertex="1">
          <mxGeometry x="256.66666666666663" y="134.57142857142858" width="36.666666666666664" height="33.642857142857146" as="geometry" />
        </mxCell>
        <mxCell id="D249ZISTXlAxNiE2_2An-11" value="" style="rounded=0;whiteSpace=wrap;html=1;container=0;" parent="D249ZISTXlAxNiE2_2An-1" vertex="1">
          <mxGeometry x="256.66666666666663" y="168.21428571428572" width="36.666666666666664" height="33.642857142857146" as="geometry" />
        </mxCell>
        <mxCell id="D249ZISTXlAxNiE2_2An-12" value="" style="rounded=0;whiteSpace=wrap;html=1;container=0;" parent="D249ZISTXlAxNiE2_2An-1" vertex="1">
          <mxGeometry x="146.66666666666666" y="33.642857142857146" width="36.666666666666664" height="33.642857142857146" as="geometry" />
        </mxCell>
        <mxCell id="D249ZISTXlAxNiE2_2An-13" value="" style="rounded=0;whiteSpace=wrap;html=1;container=0;" parent="D249ZISTXlAxNiE2_2An-1" vertex="1">
          <mxGeometry x="146.66666666666666" y="67.28571428571429" width="36.666666666666664" height="33.642857142857146" as="geometry" />
        </mxCell>
        <mxCell id="D249ZISTXlAxNiE2_2An-14" value="" style="rounded=0;whiteSpace=wrap;html=1;container=0;" parent="D249ZISTXlAxNiE2_2An-1" vertex="1">
          <mxGeometry x="146.66666666666666" y="100.92857142857143" width="36.666666666666664" height="33.642857142857146" as="geometry" />
        </mxCell>
        <mxCell id="D249ZISTXlAxNiE2_2An-15" value="" style="rounded=0;whiteSpace=wrap;html=1;container=0;" parent="D249ZISTXlAxNiE2_2An-1" vertex="1">
          <mxGeometry x="146.66666666666666" y="134.57142857142858" width="36.666666666666664" height="33.642857142857146" as="geometry" />
        </mxCell>
        <mxCell id="D249ZISTXlAxNiE2_2An-16" value="" style="rounded=0;whiteSpace=wrap;html=1;container=0;" parent="D249ZISTXlAxNiE2_2An-1" vertex="1">
          <mxGeometry x="146.66666666666666" y="168.21428571428572" width="36.666666666666664" height="33.642857142857146" as="geometry" />
        </mxCell>
        <mxCell id="D249ZISTXlAxNiE2_2An-17" value="" style="rounded=0;whiteSpace=wrap;html=1;container=0;" parent="D249ZISTXlAxNiE2_2An-1" vertex="1">
          <mxGeometry x="183.33333333333331" y="33.642857142857146" width="36.666666666666664" height="33.642857142857146" as="geometry" />
        </mxCell>
        <mxCell id="D249ZISTXlAxNiE2_2An-18" value="" style="rounded=0;whiteSpace=wrap;html=1;container=0;fillColor=#d5e8d4;strokeColor=#82b366;" parent="D249ZISTXlAxNiE2_2An-1" vertex="1">
          <mxGeometry x="183.33333333333331" y="67.28571428571429" width="36.666666666666664" height="33.642857142857146" as="geometry" />
        </mxCell>
        <mxCell id="D249ZISTXlAxNiE2_2An-19" value="" style="rounded=0;whiteSpace=wrap;html=1;container=0;fillColor=#d5e8d4;strokeColor=#82b366;" parent="D249ZISTXlAxNiE2_2An-1" vertex="1">
          <mxGeometry x="183.33333333333331" y="100.92857142857143" width="36.666666666666664" height="33.642857142857146" as="geometry" />
        </mxCell>
        <mxCell id="D249ZISTXlAxNiE2_2An-20" value="" style="rounded=0;whiteSpace=wrap;html=1;container=0;" parent="D249ZISTXlAxNiE2_2An-1" vertex="1">
          <mxGeometry x="183.33333333333331" y="134.57142857142858" width="36.666666666666664" height="33.642857142857146" as="geometry" />
        </mxCell>
        <mxCell id="D249ZISTXlAxNiE2_2An-21" value="" style="rounded=0;whiteSpace=wrap;html=1;container=0;" parent="D249ZISTXlAxNiE2_2An-1" vertex="1">
          <mxGeometry x="183.33333333333331" y="168.21428571428572" width="36.666666666666664" height="33.642857142857146" as="geometry" />
        </mxCell>
        <mxCell id="D249ZISTXlAxNiE2_2An-22" value="" style="rounded=0;whiteSpace=wrap;html=1;container=0;" parent="D249ZISTXlAxNiE2_2An-1" vertex="1">
          <mxGeometry x="73.33333333333333" y="33.642857142857146" width="36.666666666666664" height="33.642857142857146" as="geometry" />
        </mxCell>
        <mxCell id="D249ZISTXlAxNiE2_2An-23" value="" style="rounded=0;whiteSpace=wrap;html=1;container=0;" parent="D249ZISTXlAxNiE2_2An-1" vertex="1">
          <mxGeometry x="73.33333333333333" y="67.28571428571429" width="36.666666666666664" height="33.642857142857146" as="geometry" />
        </mxCell>
        <mxCell id="D249ZISTXlAxNiE2_2An-24" value="" style="rounded=0;whiteSpace=wrap;html=1;container=0;" parent="D249ZISTXlAxNiE2_2An-1" vertex="1">
          <mxGeometry x="73.33333333333333" y="100.92857142857143" width="36.666666666666664" height="33.642857142857146" as="geometry" />
        </mxCell>
        <mxCell id="D249ZISTXlAxNiE2_2An-25" value="" style="rounded=0;whiteSpace=wrap;html=1;container=0;" parent="D249ZISTXlAxNiE2_2An-1" vertex="1">
          <mxGeometry x="73.33333333333333" y="134.57142857142858" width="36.666666666666664" height="33.642857142857146" as="geometry" />
        </mxCell>
        <mxCell id="D249ZISTXlAxNiE2_2An-26" value="" style="rounded=0;whiteSpace=wrap;html=1;container=0;" parent="D249ZISTXlAxNiE2_2An-1" vertex="1">
          <mxGeometry x="73.33333333333333" y="168.21428571428572" width="36.666666666666664" height="33.642857142857146" as="geometry" />
        </mxCell>
        <mxCell id="D249ZISTXlAxNiE2_2An-27" value="" style="rounded=0;whiteSpace=wrap;html=1;container=0;" parent="D249ZISTXlAxNiE2_2An-1" vertex="1">
          <mxGeometry x="110" y="33.642857142857146" width="36.666666666666664" height="33.642857142857146" as="geometry" />
        </mxCell>
        <mxCell id="D249ZISTXlAxNiE2_2An-28" value="" style="rounded=0;whiteSpace=wrap;html=1;container=0;" parent="D249ZISTXlAxNiE2_2An-1" vertex="1">
          <mxGeometry x="110" y="67.28571428571429" width="36.666666666666664" height="33.642857142857146" as="geometry" />
        </mxCell>
        <mxCell id="D249ZISTXlAxNiE2_2An-29" value="" style="rounded=0;whiteSpace=wrap;html=1;container=0;" parent="D249ZISTXlAxNiE2_2An-1" vertex="1">
          <mxGeometry x="110" y="100.92857142857143" width="36.666666666666664" height="33.642857142857146" as="geometry" />
        </mxCell>
        <mxCell id="D249ZISTXlAxNiE2_2An-30" value="" style="rounded=0;whiteSpace=wrap;html=1;container=0;" parent="D249ZISTXlAxNiE2_2An-1" vertex="1">
          <mxGeometry x="110" y="134.57142857142858" width="36.666666666666664" height="33.642857142857146" as="geometry" />
        </mxCell>
        <mxCell id="D249ZISTXlAxNiE2_2An-31" value="" style="rounded=0;whiteSpace=wrap;html=1;container=0;" parent="D249ZISTXlAxNiE2_2An-1" vertex="1">
          <mxGeometry x="110" y="168.21428571428572" width="36.666666666666664" height="33.642857142857146" as="geometry" />
        </mxCell>
        <mxCell id="D249ZISTXlAxNiE2_2An-32" value="" style="rounded=0;whiteSpace=wrap;html=1;container=0;fillColor=#f8cecc;strokeColor=#b85450;" parent="D249ZISTXlAxNiE2_2An-1" vertex="1">
          <mxGeometry x="36.666666666666664" y="33.642857142857146" width="36.666666666666664" height="33.642857142857146" as="geometry" />
        </mxCell>
        <mxCell id="D249ZISTXlAxNiE2_2An-33" value="" style="rounded=0;whiteSpace=wrap;html=1;container=0;" parent="D249ZISTXlAxNiE2_2An-1" vertex="1">
          <mxGeometry x="36.666666666666664" y="67.28571428571429" width="36.666666666666664" height="33.642857142857146" as="geometry" />
        </mxCell>
        <mxCell id="D249ZISTXlAxNiE2_2An-34" value="" style="rounded=0;whiteSpace=wrap;html=1;container=0;" parent="D249ZISTXlAxNiE2_2An-1" vertex="1">
          <mxGeometry x="36.666666666666664" y="100.92857142857143" width="36.666666666666664" height="33.642857142857146" as="geometry" />
        </mxCell>
        <mxCell id="D249ZISTXlAxNiE2_2An-35" value="" style="rounded=0;whiteSpace=wrap;html=1;container=0;" parent="D249ZISTXlAxNiE2_2An-1" vertex="1">
          <mxGeometry x="36.666666666666664" y="134.57142857142858" width="36.666666666666664" height="33.642857142857146" as="geometry" />
        </mxCell>
        <mxCell id="D249ZISTXlAxNiE2_2An-36" value="" style="rounded=0;whiteSpace=wrap;html=1;container=0;" parent="D249ZISTXlAxNiE2_2An-1" vertex="1">
          <mxGeometry x="36.666666666666664" y="168.21428571428572" width="36.666666666666664" height="33.642857142857146" as="geometry" />
        </mxCell>
        <mxCell id="D249ZISTXlAxNiE2_2An-37" value="&lt;pre&gt;&lt;b&gt;&lt;font style=&quot;font-size: 15px;&quot;&gt;1&lt;/font&gt;&lt;/b&gt;&lt;/pre&gt;" style="text;html=1;strokeColor=none;fillColor=none;align=center;verticalAlign=middle;whiteSpace=wrap;rounded=0;container=0;" parent="D249ZISTXlAxNiE2_2An-1" vertex="1">
          <mxGeometry x="73.33333333333333" width="36.666666666666664" height="33.642857142857146" as="geometry" />
        </mxCell>
        <mxCell id="D249ZISTXlAxNiE2_2An-38" value="&lt;b&gt;&lt;font style=&quot;font-size: 15px;&quot;&gt;2&lt;/font&gt;&lt;/b&gt;" style="text;html=1;strokeColor=none;fillColor=none;align=center;verticalAlign=middle;whiteSpace=wrap;rounded=0;container=0;" parent="D249ZISTXlAxNiE2_2An-1" vertex="1">
          <mxGeometry x="110" width="36.666666666666664" height="33.642857142857146" as="geometry" />
        </mxCell>
        <mxCell id="D249ZISTXlAxNiE2_2An-39" value="&lt;font size=&quot;1&quot;&gt;&lt;b style=&quot;font-size: 15px;&quot;&gt;3&lt;/b&gt;&lt;/font&gt;" style="text;html=1;strokeColor=none;fillColor=none;align=center;verticalAlign=middle;whiteSpace=wrap;rounded=0;container=0;" parent="D249ZISTXlAxNiE2_2An-1" vertex="1">
          <mxGeometry x="146.66666666666666" width="36.666666666666664" height="33.642857142857146" as="geometry" />
        </mxCell>
        <mxCell id="D249ZISTXlAxNiE2_2An-40" value="&lt;b style=&quot;font-size: 15px;&quot;&gt;4&lt;/b&gt;" style="text;html=1;strokeColor=none;fillColor=none;align=center;verticalAlign=middle;whiteSpace=wrap;rounded=0;container=0;" parent="D249ZISTXlAxNiE2_2An-1" vertex="1">
          <mxGeometry x="183.33333333333331" width="36.666666666666664" height="33.642857142857146" as="geometry" />
        </mxCell>
        <mxCell id="D249ZISTXlAxNiE2_2An-41" value="&lt;font size=&quot;1&quot;&gt;&lt;b style=&quot;font-size: 15px;&quot;&gt;5&lt;/b&gt;&lt;/font&gt;" style="text;html=1;strokeColor=none;fillColor=none;align=center;verticalAlign=middle;whiteSpace=wrap;rounded=0;container=0;" parent="D249ZISTXlAxNiE2_2An-1" vertex="1">
          <mxGeometry x="220" width="36.666666666666664" height="33.642857142857146" as="geometry" />
        </mxCell>
        <mxCell id="D249ZISTXlAxNiE2_2An-42" value="&lt;font size=&quot;1&quot;&gt;&lt;b style=&quot;font-size: 15px;&quot;&gt;6&lt;/b&gt;&lt;/font&gt;" style="text;html=1;strokeColor=none;fillColor=none;align=center;verticalAlign=middle;whiteSpace=wrap;rounded=0;container=0;" parent="D249ZISTXlAxNiE2_2An-1" vertex="1">
          <mxGeometry x="256.66666666666663" width="36.666666666666664" height="33.642857142857146" as="geometry" />
        </mxCell>
        <mxCell id="D249ZISTXlAxNiE2_2An-43" value="&lt;font size=&quot;1&quot;&gt;&lt;b style=&quot;font-size: 15px;&quot;&gt;7&lt;/b&gt;&lt;/font&gt;" style="text;html=1;strokeColor=none;fillColor=none;align=center;verticalAlign=middle;whiteSpace=wrap;rounded=0;container=0;" parent="D249ZISTXlAxNiE2_2An-1" vertex="1">
          <mxGeometry x="293.3333333333333" width="36.666666666666664" height="33.642857142857146" as="geometry" />
        </mxCell>
        <mxCell id="D249ZISTXlAxNiE2_2An-44" value="&lt;pre&gt;&lt;b&gt;&lt;font style=&quot;font-size: 15px;&quot;&gt;1&lt;/font&gt;&lt;/b&gt;&lt;/pre&gt;" style="text;html=1;strokeColor=none;fillColor=none;align=center;verticalAlign=middle;whiteSpace=wrap;rounded=0;container=0;" parent="D249ZISTXlAxNiE2_2An-1" vertex="1">
          <mxGeometry y="67.28571428571429" width="36.666666666666664" height="33.642857142857146" as="geometry" />
        </mxCell>
        <mxCell id="D249ZISTXlAxNiE2_2An-45" value="&lt;b&gt;&lt;font style=&quot;font-size: 15px;&quot;&gt;2&lt;/font&gt;&lt;/b&gt;" style="text;html=1;strokeColor=none;fillColor=none;align=center;verticalAlign=middle;whiteSpace=wrap;rounded=0;container=0;" parent="D249ZISTXlAxNiE2_2An-1" vertex="1">
          <mxGeometry y="100.92857142857143" width="36.666666666666664" height="33.642857142857146" as="geometry" />
        </mxCell>
        <mxCell id="D249ZISTXlAxNiE2_2An-46" value="&lt;font size=&quot;1&quot;&gt;&lt;b style=&quot;font-size: 15px;&quot;&gt;3&lt;/b&gt;&lt;/font&gt;" style="text;html=1;strokeColor=none;fillColor=none;align=center;verticalAlign=middle;whiteSpace=wrap;rounded=0;container=0;" parent="D249ZISTXlAxNiE2_2An-1" vertex="1">
          <mxGeometry y="134.57142857142858" width="36.666666666666664" height="33.642857142857146" as="geometry" />
        </mxCell>
        <mxCell id="D249ZISTXlAxNiE2_2An-47" value="&lt;b style=&quot;font-size: 15px;&quot;&gt;4&lt;/b&gt;" style="text;html=1;strokeColor=none;fillColor=none;align=center;verticalAlign=middle;whiteSpace=wrap;rounded=0;container=0;" parent="D249ZISTXlAxNiE2_2An-1" vertex="1">
          <mxGeometry y="168.21428571428572" width="36.666666666666664" height="33.642857142857146" as="geometry" />
        </mxCell>
        <mxCell id="D249ZISTXlAxNiE2_2An-48" value="&lt;font size=&quot;1&quot;&gt;&lt;b style=&quot;font-size: 15px;&quot;&gt;5&lt;/b&gt;&lt;/font&gt;" style="text;html=1;strokeColor=none;fillColor=none;align=center;verticalAlign=middle;whiteSpace=wrap;rounded=0;container=0;" parent="D249ZISTXlAxNiE2_2An-1" vertex="1">
          <mxGeometry y="201.85714285714286" width="36.666666666666664" height="33.642857142857146" as="geometry" />
        </mxCell>
        <mxCell id="D249ZISTXlAxNiE2_2An-49" value="" style="rounded=0;whiteSpace=wrap;html=1;container=0;" parent="D249ZISTXlAxNiE2_2An-1" vertex="1">
          <mxGeometry x="293.3333333333333" y="33.642857142857146" width="36.666666666666664" height="33.642857142857146" as="geometry" />
        </mxCell>
        <mxCell id="D249ZISTXlAxNiE2_2An-50" value="" style="rounded=0;whiteSpace=wrap;html=1;container=0;" parent="D249ZISTXlAxNiE2_2An-1" vertex="1">
          <mxGeometry x="293.3333333333333" y="67.28571428571429" width="36.666666666666664" height="33.642857142857146" as="geometry" />
        </mxCell>
        <mxCell id="D249ZISTXlAxNiE2_2An-51" value="" style="rounded=0;whiteSpace=wrap;html=1;container=0;" parent="D249ZISTXlAxNiE2_2An-1" vertex="1">
          <mxGeometry x="293.3333333333333" y="100.92857142857143" width="36.666666666666664" height="33.642857142857146" as="geometry" />
        </mxCell>
        <mxCell id="D249ZISTXlAxNiE2_2An-52" value="" style="rounded=0;whiteSpace=wrap;html=1;container=0;" parent="D249ZISTXlAxNiE2_2An-1" vertex="1">
          <mxGeometry x="293.3333333333333" y="134.57142857142858" width="36.666666666666664" height="33.642857142857146" as="geometry" />
        </mxCell>
        <mxCell id="D249ZISTXlAxNiE2_2An-53" value="" style="rounded=0;whiteSpace=wrap;html=1;container=0;" parent="D249ZISTXlAxNiE2_2An-1" vertex="1">
          <mxGeometry x="293.3333333333333" y="168.21428571428572" width="36.666666666666664" height="33.642857142857146" as="geometry" />
        </mxCell>
        <mxCell id="D249ZISTXlAxNiE2_2An-54" value="" style="rounded=0;whiteSpace=wrap;html=1;container=0;" parent="D249ZISTXlAxNiE2_2An-1" vertex="1">
          <mxGeometry x="220" y="201.85714285714286" width="36.666666666666664" height="33.642857142857146" as="geometry" />
        </mxCell>
        <mxCell id="D249ZISTXlAxNiE2_2An-55" value="" style="rounded=0;whiteSpace=wrap;html=1;container=0;" parent="D249ZISTXlAxNiE2_2An-1" vertex="1">
          <mxGeometry x="256.66666666666663" y="201.85714285714286" width="36.666666666666664" height="33.642857142857146" as="geometry" />
        </mxCell>
        <mxCell id="D249ZISTXlAxNiE2_2An-56" value="" style="rounded=0;whiteSpace=wrap;html=1;container=0;" parent="D249ZISTXlAxNiE2_2An-1" vertex="1">
          <mxGeometry x="146.66666666666666" y="201.85714285714286" width="36.666666666666664" height="33.642857142857146" as="geometry" />
        </mxCell>
        <mxCell id="D249ZISTXlAxNiE2_2An-57" value="" style="rounded=0;whiteSpace=wrap;html=1;container=0;" parent="D249ZISTXlAxNiE2_2An-1" vertex="1">
          <mxGeometry x="183.33333333333331" y="201.85714285714286" width="36.666666666666664" height="33.642857142857146" as="geometry" />
        </mxCell>
        <mxCell id="D249ZISTXlAxNiE2_2An-58" value="" style="rounded=0;whiteSpace=wrap;html=1;container=0;fillColor=#dae8fc;strokeColor=#6c8ebf;" parent="D249ZISTXlAxNiE2_2An-1" vertex="1">
          <mxGeometry x="73.33333333333333" y="201.85714285714286" width="36.666666666666664" height="33.642857142857146" as="geometry" />
        </mxCell>
        <mxCell id="D249ZISTXlAxNiE2_2An-59" value="" style="rounded=0;whiteSpace=wrap;html=1;container=0;fillColor=#dae8fc;strokeColor=#6c8ebf;" parent="D249ZISTXlAxNiE2_2An-1" vertex="1">
          <mxGeometry x="110" y="201.85714285714286" width="36.666666666666664" height="33.642857142857146" as="geometry" />
        </mxCell>
        <mxCell id="D249ZISTXlAxNiE2_2An-60" value="" style="rounded=0;whiteSpace=wrap;html=1;container=0;fillColor=#dae8fc;strokeColor=#6c8ebf;" parent="D249ZISTXlAxNiE2_2An-1" vertex="1">
          <mxGeometry x="36.666666666666664" y="201.85714285714286" width="36.666666666666664" height="33.642857142857146" as="geometry" />
        </mxCell>
        <mxCell id="D249ZISTXlAxNiE2_2An-61" value="" style="rounded=0;whiteSpace=wrap;html=1;container=0;" parent="D249ZISTXlAxNiE2_2An-1" vertex="1">
          <mxGeometry x="293.3333333333333" y="201.85714285714286" width="36.666666666666664" height="33.642857142857146" as="geometry" />
        </mxCell>
        <mxCell id="D249ZISTXlAxNiE2_2An-62" value="&lt;pre&gt;&lt;b&gt;&lt;font style=&quot;font-size: 15px;&quot;&gt;0&lt;/font&gt;&lt;/b&gt;&lt;/pre&gt;" style="text;html=1;strokeColor=none;fillColor=none;align=center;verticalAlign=middle;whiteSpace=wrap;rounded=0;container=0;" parent="D249ZISTXlAxNiE2_2An-1" vertex="1">
          <mxGeometry x="36.666666666666664" width="36.666666666666664" height="33.642857142857146" as="geometry" />
        </mxCell>
        <mxCell id="D249ZISTXlAxNiE2_2An-63" value="&lt;pre&gt;&lt;b&gt;&lt;font style=&quot;font-size: 15px;&quot;&gt;0&lt;/font&gt;&lt;/b&gt;&lt;/pre&gt;" style="text;html=1;strokeColor=none;fillColor=none;align=center;verticalAlign=middle;whiteSpace=wrap;rounded=0;container=0;" parent="D249ZISTXlAxNiE2_2An-1" vertex="1">
          <mxGeometry y="33.642857142857146" width="36.666666666666664" height="33.642857142857146" as="geometry" />
        </mxCell>
        <mxCell id="D249ZISTXlAxNiE2_2An-64" value="&lt;pre&gt;&lt;b&gt;ColdRoom&lt;/b&gt;&lt;/pre&gt;" style="text;html=1;strokeColor=none;fillColor=none;align=center;verticalAlign=middle;whiteSpace=wrap;rounded=0;" parent="D249ZISTXlAxNiE2_2An-1" vertex="1">
          <mxGeometry x="192.5" y="92.51785714285714" width="55" height="25.232142857142858" as="geometry" />
        </mxCell>
        <mxCell id="D249ZISTXlAxNiE2_2An-65" value="&lt;pre&gt;&lt;b&gt;Indoor&lt;/b&gt;&lt;/pre&gt;" style="text;html=1;strokeColor=none;fillColor=none;align=center;verticalAlign=middle;whiteSpace=wrap;rounded=0;" parent="D249ZISTXlAxNiE2_2An-1" vertex="1">
          <mxGeometry x="64.16666666666666" y="206.0625" width="55" height="25.232142857142858" as="geometry" />
        </mxCell>
        <mxCell id="4j98KLdYWCdhN-2w7q4d-7" value="" style="shape=image;html=1;verticalAlign=top;verticalLabelPosition=bottom;labelBackgroundColor=#ffffff;imageAspect=0;aspect=fixed;image=https://cdn1.iconfinder.com/data/icons/unicons-line-vol-5/24/robot-128.png" parent="D249ZISTXlAxNiE2_2An-1" vertex="1">
          <mxGeometry x="36.67" y="33.64" width="35.54" height="35.54" as="geometry" />
        </mxCell>
        <mxCell id="4j98KLdYWCdhN-2w7q4d-75" value="" style="shape=image;html=1;verticalAlign=top;verticalLabelPosition=bottom;labelBackgroundColor=#ffffff;imageAspect=0;aspect=fixed;image=https://cdn1.iconfinder.com/data/icons/unicons-line-vol-5/24/robot-128.png" parent="D249ZISTXlAxNiE2_2An-1" vertex="1">
          <mxGeometry x="183.95" y="134.57" width="35.43" height="35.43" as="geometry" />
        </mxCell>
        <mxCell id="4j98KLdYWCdhN-2w7q4d-74" value="" style="shape=image;html=1;verticalAlign=top;verticalLabelPosition=bottom;labelBackgroundColor=#ffffff;imageAspect=0;aspect=fixed;image=https://cdn1.iconfinder.com/data/icons/unicons-line-vol-5/24/robot-128.png" parent="D249ZISTXlAxNiE2_2An-1" vertex="1">
          <mxGeometry x="145" y="198.67999999999995" width="40" height="40" as="geometry" />
        </mxCell>
        <mxCell id="4j98KLdYWCdhN-2w7q4d-77" value="" style="endArrow=classic;html=1;rounded=0;exitX=0;exitY=0.5;exitDx=0;exitDy=0;entryX=0;entryY=0.5;entryDx=0;entryDy=0;fillColor=#f8cecc;strokeColor=#b85450;strokeWidth=2;" parent="D249ZISTXlAxNiE2_2An-1" source="D249ZISTXlAxNiE2_2An-60" target="4j98KLdYWCdhN-2w7q4d-74" edge="1">
          <mxGeometry width="50" height="50" relative="1" as="geometry">
            <mxPoint x="110" y="320" as="sourcePoint" />
            <mxPoint x="160" y="270" as="targetPoint" />
          </mxGeometry>
        </mxCell>
        <mxCell id="4j98KLdYWCdhN-2w7q4d-78" value="" style="endArrow=classic;html=1;rounded=0;exitX=0;exitY=0.5;exitDx=0;exitDy=0;entryX=0.5;entryY=0;entryDx=0;entryDy=0;fillColor=#f8cecc;strokeColor=#b85450;strokeWidth=2;" parent="D249ZISTXlAxNiE2_2An-1" source="D249ZISTXlAxNiE2_2An-57" target="D249ZISTXlAxNiE2_2An-21" edge="1">
          <mxGeometry width="50" height="50" relative="1" as="geometry">
            <mxPoint x="110" y="320" as="sourcePoint" />
            <mxPoint x="160" y="270" as="targetPoint" />
            <Array as="points">
              <mxPoint x="200" y="220" />
            </Array>
          </mxGeometry>
        </mxCell>
        <mxCell id="4j98KLdYWCdhN-2w7q4d-80" value="" style="shape=image;html=1;verticalAlign=top;verticalLabelPosition=bottom;labelBackgroundColor=#ffffff;imageAspect=0;aspect=fixed;image=https://cdn2.iconfinder.com/data/icons/essential-web-1-1/50/hourlass-waiting-time-delay-minute-128.png;imageBackground=none;" parent="D249ZISTXlAxNiE2_2An-1" vertex="1">
          <mxGeometry x="72.21000000000001" y="41.41" width="20" height="20" as="geometry" />
        </mxCell>
        <mxCell id="4j98KLdYWCdhN-2w7q4d-81" value="" style="html=1;verticalLabelPosition=bottom;align=center;labelBackgroundColor=#ffffff;verticalAlign=top;strokeWidth=2;strokeColor=#000000;shadow=0;dashed=0;shape=mxgraph.ios7.icons.pause;pointerEvents=1;fillColor=#000000;" parent="D249ZISTXlAxNiE2_2An-1" vertex="1">
          <mxGeometry x="173.95" y="142.32000000000002" width="10" height="18.14" as="geometry" />
        </mxCell>
        <mxCell id="4j98KLdYWCdhN-2w7q4d-82" value="" style="html=1;verticalLabelPosition=bottom;align=center;labelBackgroundColor=#ffffff;verticalAlign=top;strokeWidth=2;strokeColor=#000000;shadow=0;dashed=0;shape=mxgraph.ios7.icons.play;fillColor=#000000;" parent="D249ZISTXlAxNiE2_2An-1" vertex="1">
          <mxGeometry x="150" y="188.67999999999995" width="10" height="10" as="geometry" />
        </mxCell>
        <mxCell id="fmT8V-rIRmQI-8B9I62--2" value="" style="shape=image;verticalLabelPosition=bottom;labelBackgroundColor=default;verticalAlign=top;aspect=fixed;imageAspect=0;image=data:image/png,iVBORw0KGgoAAAANSUhEUgAAAC4AAAAwCAYAAABuZUjcAAAE40lEQVRoQ+2YWWhUZxTHnUncE4xao5UkM8mkLlVo3AJSA7bUJm8m2latikv7IEhSLLgQI2oFLVHRB4svLiBJCkkwpW5ItVgRXypV0ATcZpxsbqAiojbLjL+DN1BCM99yRyEwFw73Tu53/uf3nXu+LZ4B/fTy9FPuAQnw9/3lEhlPZFwzA4lSkURlZWVt4Jbr8Xied3V17YpGo8Pa29tbNJNo1CxuGff5fJMBLQP6CffVUBzlmcdoGc+DvV5vPvd7XM+MCPtoHDfwnJycEZ2dnWeBzQc2wj2JmBEsikmcl9hQ7DzvToTD4QNuOuAaPDs7+5Pu7m6B+BS7j10FTLJ9iuy+FrjMzMwAGS+mQ3P5KfYIC+K3qq2trdWmA67AAfoFwO8J/IJ7KVmsUUH4/f5JkUhkDe2khF4kJSXNCoVCN1V+vd9bgzMQf0NsHln8FSttbW19ZRIc/yn4HafD4/gaPtPatwIn6Akgi7Alzc3N9SbAvdui9Q9/S0cnw0THGJxAVQIs4AT7wyRYX23RfMK7i+gV6+oZgROgFOGf+cQVLS0t+2IFof4Lk5OTr1G/D1UwTKXfolmFfYTuXVV7ea8NnpGRUUQt1iN+BXGZGfq86OBVXuZh35DFOh0QfG7Q7intC3Ta64J7Eb6O4GhmhMUMxAt9iZO9I3RulfNeGxy/BfjVoZ+iM9C1wBHdC8gMhCeQkfExavVr3tX+5702uPgQ5zkxDhCjXJV1JTjz7hCyIAvG30xdh2PN1XyVEO38mCzraSalIqD4nyPGB8SQMot5KcHJwlrAv0CwMDU1Na2xsbFDJQrAedp8bgG+FZ9yMj5YFUMJDsQ+Pt9AKRUG5WyVoJM5W/Cd+JcxG00PBoO3YsVSgpPxBjLeTsZTyMQKTXDjWcWp8e9I0g6eV6jWCCW4k3E/4A8Rkz2G8sJHdoRymQ7OCsAXEWs/dX7YVcaB+AqBzdgNwJcrqd8OMitw/C7hLhu2WsCPuAJn4RnFwnMfsSbEpr0rcFbaqcQQ8JPczxCr2hW4M9h2cV9HrQdYHNpU8DYZB7waYFk95xDnEHEaXIMHAoF0TjdySNhOufwUS5CDxVgOCA9MahxoWearmLV8dPoB59VZqrOqcnD2QCJeQ0Y+A/zDWODO2bNJ2jDQioA5q/pCaJ+mze+U5C18julscbXBc3Nzx3R0dEgm9yC8MRYMID/Ke+bjatXukI4upTTW08E8mcFw+xf9TarOaoOLEEC7yfo6HgsRl0XG1eWU4HU0F5PtJkoszFFuIp0Nq4SNwJ2BKotLDjYN+KAqgKKs5NgXkk0V2a6jAzeZTSp0NG3ARyIsNewhQzNtT+l8vXJnzMyT1Rm9kUDP1YGWNsbg4kSgbDJ1kcc0gi8ioAwu7Qv/EvwPMgbyma2WoSF1XswUeFtXxApcxFmYhlKX53icCcRlbBuB/1IFJtPzaVOP70p8vuR5CtNfiWr6661rDd4jRG3Kxmu/81uW+j8xOS01ksXHAIq95HkYf5PtwzanTQHglcwmW1Sd/b/3rsF7RGXfDsgP/B6OyYHCiw3CRvH3FOCHcJe/XZa9COPjAl/ojg20+MQNvAeAEsoHciG/PwZwgvzXk2fZW19i9qi0BY17qcQLxFQn7hk3BbBtnwC3zZytXyLjtpmz9Utk3DZztn79NuNvAJIETk9j4nnoAAAAAElFTkSuQmCC;" vertex="1" parent="D249ZISTXlAxNiE2_2An-1">
          <mxGeometry x="220" y="134.57" width="37.5" height="39.13" as="geometry" />
        </mxCell>
        <mxCell id="fmT8V-rIRmQI-8B9I62--1" value="" style="shape=image;verticalLabelPosition=bottom;labelBackgroundColor=default;verticalAlign=top;aspect=fixed;imageAspect=0;image=data:image/png,iVBORw0KGgoAAAANSUhEUgAAAC4AAAAwCAYAAABuZUjcAAAFTUlEQVRoQ+2Ye4hUVRzHnd1tx9GKFDfH3Z3Z3VgfORDrrrhp65JFlCZUEoKrqbWhSAW99A/J1IKg6IkRJWUhSkXJGviKSHR9pAZm0PqcfczuzJJt0K7bA7d59PnFvTFNc+ecO3NbWJgLP86de875/j7nd37n3HPHNWqEXq4Ryj0qDz7cM5ePeD7imhHIp4oEqrS0dEJhYeHCgoKCxkQiUcqjq5Qf9/T0fKIZSO1mjkQcYF9RUdGLeF2O9WKTXC7XSaCj3Ndzv4tyRzQaDUYikYvadBka5gzu9/uXob8FyO8BnEX5HOWdPFuAhbCx2Dgsjv2JncVe7u7u/jyXAeQE7vP51gD5PLC/AnGKcl04HI4IUHl5uYf7P4wU8pM+MWwRv9dhE7BPgV+ZLXzW4ER6lUQOGw38o6FQaKcuBIN6nEFsof1x4G/T7ZfcLitwoBciIlMt074M51LauoCvB/4Qg97NoJfY6kxj2+BAT6ffadLigtvtnhUMBq/adWq2R2s1969JirHzvGNHxzY4eR0iSnF2iEBvb+/vdpylawv8McBlUU9nTVzS1bMFDvQ2oJfH4/E5ODll5aSysvJWQFZhD9DmBqyffoco15MW55L7VVRUNNFuA8/aSTlJQa1LGxwH83Egef0KDjZngmZg+wUY2A/p003pp3xYBkBez+/q6jph9q+urnYPDQ0N0OYc/TaRMl/okGuDM6VdCHqAnphJmHZfU38HgLOTARl4M/DvG4tRZuKfiz6d/PiSumnMyO2OgeN0KWJvyMsF8K0KcIHop92M1HYAfsezGur+FTCePwn0FPTnEvXmTGloampFHOFvEZ0Ri8Wuz2VBmrORCk5g5qD/FvCHARsg6nJ8yHgpwauqqiYC3I5KCw4fUgla1QN3M3Cy359JnQ15y5Jav1F3N7aR+gaVHyU4O0kjkZDTnSzKN1WCGcBbAL/feMt+kCaNwsA/SKp8hh+fyo8O+H04ew+nq3VXfKpTor1NdpV0C9NsSxod534t1gq4m1JOlpaXEpw9uYYoHMbxCsB3qyJhBS0pwln9ns7OzsvpNAD/SmYV23MdV1tb21BO4CUlJdd6PJ4riLxAJDbpgsvaYMDvSnrQ5yDQTVbQogl4q/gQcPyMVvlRRtwQPSklgvUqQak3FvQBbmvkJcQu8YiqH+CXGOSztH8VP5NV7XXB5WNhOxEca56xrYSzgSYdvWifBXoDZS0p2ewIuIiwwC4juhfRjNGj3etE7indSBvaa9GuYVcZL9+oRHy7Y+BM5UbE1vNteWNHR8dAOuGkvVqqD1o5B0w+7cyrAO0w4C8Bvoa6gApa6rVSxRRiT+9BvN3qPGGeR1SOk9+caD6D5kzAvZQ70P7PHp9Ozxa4cUJsIQ0e03WQaRCsh6mc64+gt492YxjQYtWgzXpb4EY+7iIP5aO3AUfHdB2ltvN6vSXFxcUCfAFrZAC1nIN+1tWzDR4IBIoHBwflBOhmALewWOV/FFsXM1dL351yBqecR7mAGfzGjohtcBFnMd2EwxM4jJGbM82/JFSO6+rqrunr65OPkKexPdhd2L3M3FFV39T6rMBFpKysrJwdZi8DmMwAPsK28uFwxgqARbiSus20O09ZiEUZ9BN2vjOTtbMGN0WM79AmfvdjVwA7ClCE8id+j8HqsHnSnmeMM3FRTpukxtt2o+wouIgBPxcYOfLKqe5HzINNwiqxILCt1B+gPM+a+CEXYLNvzhFPhiD3GwCczbMEUQ/KFw35+4sToKkajoL/H4BWmnnw4Yz23wt9uB065S8P7lQkdXXyEdeNlFPtRmzE/wIDKnhPFY5x/QAAAABJRU5ErkJggg==;" vertex="1" parent="D249ZISTXlAxNiE2_2An-1">
          <mxGeometry x="110.66999999999999" y="160.46" width="36" height="37.57" as="geometry" />
        </mxCell>
        <mxCell id="fmT8V-rIRmQI-8B9I62--3" value="" style="shape=image;verticalLabelPosition=bottom;labelBackgroundColor=default;verticalAlign=top;aspect=fixed;imageAspect=0;image=data:image/png,iVBORw0KGgoAAAANSUhEUgAAAC4AAAAwCAYAAABuZUjcAAAFOElEQVRoQ+2Yf2hTVxTHzY9mdjhd669a2zRJERxV7PCPZWhV6m833FZFN2HDqcjmmNLWKUXUiv+oqKCioFSlIDpxbo5tbpOtomyygbiKDhWtTdOuq1uRbmHdmv7ycySBGl9y72ueAyGBQ17eOfecz/2++859L7YBT+nH9pRyD0iB/99XLqV4SnFNBVJLJZFQbrd7TW9v773GxsaPNQVVhj0xxXNzc0M2m80BgR17BvAT/N4fDAZ/VFJpBFgKDmwRcOuoW4QNxjr5fQPoDo7TOR7B8W2O9zKBUxp8cUMsAQe4CqgFVBmC3QTuE6fTub+7u/s9ALfgX8z5TLvdXoTvLY5/x2p6enpWNzU13e/PBJICZ+2Kaq9hf2FVQFaoIHw+n7uzs/MLJppJrAP4KcDfUY2L9fcLPC8vz4tyNaIiABUNDQ0HzBZm0psYs1LU7+rqmtrc3NxuJodp8JycnLlc8jMUuY7CE80Ui41lCR1m4i9y/ldyvW0mlylwVCog+RXUPktre8NMIaNYREh3OBy15BuELSPnt7o5zYI3kTiAOpMTFWApvYD/I2Bkcs/LGKyacZUGqi9F9XLsH5ac33Jw1N4ja5Li6SpogC8JMDBHOQ5yLO2xGKth/PTY8eS+LPHErkL1czrwWooXFBS4QqHQ37KBoEq5AvwIAO8Su4LYw9FYrsJnnH+d34tiezi+Jfg24LuG703LwLmJSgHZRuvy0bp+U4ALYCEA3r5x5JhNjm84t8VoyaD6n/gy2tvbM1pbW0MqeC3FSXqdRE4KjlUljOcHvAzwXUyqnOWwOzYO1XfiK8FK8X+uqqMEjyyTDinKpV+rShjr93q9I7lSrwK0E18bXcRfX19/z2CdT+LcSew0Aq1R1VGCezyeQgrLZlNKwmpVwr5+rlQlvzdHzgWY/DwmfyNeDuL/xSc38CuqOkpwaW2oJb27iEsod7/2J7I8BgPslhtWFGfzmhsIBH4ySgK4PDkO1VmSSnCS+Uh2m4JDKdimTR0TiADLga/itOwDj9y40dBI55mAX2om/CjBZTTwvWlpaSPr6ur+UCVM5CfPL/gLEeFlI9XxH8P/EuBjVHV0wO0k7CbRTBJ+p0qoAP8efzHKzzHa3qnzJf5ROs9AOuCiuLwQ7FF1FekgPINLr74fZ4esx+ehs2QZdRbuiVvUucrYRSqBdMGvkSiThKNVCZnkQ7hYVaN9HLAzCPDYA1pWVtZwl8slbXIrdaKdKG45XfCDZFiI7SDp9kTwtE8/7fNrYoyeVWpRe06cPl7JmPexBdT4QSWQLrhsDl+h4lXW5lRVUoEndj02TSaASQ8/z01ZYQRN/FgmW0uc7M4D+e5S1dAClyQsAVFddsAy4GWHs+xDbrlp05jcZZZRmU5ibfD8/PwRvCv+TNLRFPBT4IpOAVUM0IcQYwI5x4XDYU9LS4s8bCk/2uCSiTeWMVxuedYOs1aLuey3lBUSBHDD7gN4BiHPAb+EK3lRN58pcEkaeXY5y6H8FTGfNSmX2ezHDvQlUZmBF7APyXPXTBLT4JI8Ozv7Wf43kfdDuWmPUfQdnaLATgH2A2JL+G5G5eX93dT6BR6FZH3Kv1aVWAcQx7G1vGjIE55MbhiPCeM5J+YHdBanpVtk8HsHy2KjzmTjxSQF3kd9eR8tweRPHgEPYy5MXq7bgJb/DuUFupp7ZCPPKS3JQMvYpMH7ArD+PfTj2UCOA9aJT3pykGPZyj8F+L9kgaPjLQW3CkonTwpcRyUrY1KKW6mmTq6U4joqWRmTUtxKNXVyPQCEoFFPYfxSjwAAAABJRU5ErkJggg==;" vertex="1" parent="D249ZISTXlAxNiE2_2An-1">
          <mxGeometry x="36.67" y="67.29" width="38" height="39.65" as="geometry" />
        </mxCell>
        <mxCell id="je95OcTBM0ibGp5n34PD-1" value="" style="shape=mxgraph.signs.people.man_2;html=1;pointerEvents=1;fillColor=#000000;strokeColor=none;verticalLabelPosition=bottom;verticalAlign=top;align=center;" parent="4j98KLdYWCdhN-2w7q4d-6" vertex="1">
          <mxGeometry x="30" y="250" width="31.49" height="80" as="geometry" />
        </mxCell>
      </root>
    </mxGraphModel>
  </diagram>
</mxfile>
